<svg xmlns="http://www.w3.org/2000/svg" width="707" height="511" viewBox="0 0 707 511" fill="none"><path d="M7.41622 417.676L4.93262 415.589L147.568 14.556L149.741 13.5039L505.862 130.854L646.307 51.1374L648.014 54.1385L510.278 132.303L694.409 192.979L694.651 196.152L292.031 402.516L289.633 401.585L245.773 282.423L7.41622 417.676ZM149.223 20.2131L9.7446 412.399L244.532 279.146L149.223 20.2131ZM248.792 280.699L292.186 398.566L689.408 194.962L506.224 134.597L248.792 280.699ZM152.035 17.8847L247.567 277.404L501.775 133.131L152.035 17.8847Z" fill="#EFF5F6"></path><path d="M234.442 458L232.459 457.155L71.1624 156.001L71.6625 153.793L261.727 13.7454L263.849 13.7971L661.347 337.942L660.708 340.943L234.442 458ZM74.905 155.673L234.856 454.292L656.569 338.494L262.693 17.3155L74.905 155.673Z" fill="#EFF5F6"></path><path d="M659.691 340.909L444.255 264.866L72.197 156.829L73.1629 153.517L445.307 261.589L660.829 337.649L659.691 340.909Z" fill="#EFF5F6"></path><path d="M235.718 456.448L232.269 456.224L261.02 15.0216L262.917 13.4176L647.307 50.9132L648.859 52.5517L661.985 339.201L658.535 339.356L645.496 54.2074L264.349 17.0223L235.718 456.448Z" fill="#EFF5F6"></path><path d="M16.0055 416.176C16.0055 420.591 12.418 424.179 8.00273 424.179C3.58743 424.179 0 420.591 0 416.176C0 411.761 3.58743 408.173 8.00273 408.173C12.418 408.173 16.0055 411.761 16.0055 416.176Z" fill="#EFF5F6"></path><path d="M668.28 339.288C668.28 343.72 664.692 347.308 660.26 347.308C655.827 347.308 652.24 343.72 652.24 339.288C652.24 334.855 655.827 331.268 660.26 331.268C664.692 331.25 668.28 334.855 668.28 339.288Z" fill="#EFF5F6"></path><path d="M660.65 54.7174C661.82 47.274 656.736 40.2907 649.292 39.1199C641.849 37.949 634.865 43.0339 633.695 50.4773C632.524 57.9207 637.609 64.904 645.052 66.0749C652.495 67.2458 659.479 62.1609 660.65 54.7174Z" fill="white"></path><path d="M647.152 67.1428C639.149 67.1428 632.647 60.6406 632.647 52.6379C632.647 44.6351 639.149 38.1329 647.152 38.1329C655.155 38.1329 661.657 44.6351 661.657 52.6379C661.64 60.6234 655.138 67.1428 647.152 67.1428ZM647.152 39.8577C640.115 39.8577 634.372 45.5837 634.372 52.6379C634.372 59.6748 640.098 65.4181 647.152 65.4181C654.189 65.4181 659.932 59.692 659.932 52.6379C659.915 45.5837 654.189 39.8577 647.152 39.8577Z" fill="#6BD6DC"></path><path d="M647.152 58.0363C650.133 58.0363 652.55 55.6193 652.55 52.6379C652.55 49.6564 650.133 47.2395 647.152 47.2395C644.17 47.2395 641.754 49.6564 641.754 52.6379C641.754 55.6193 644.17 58.0363 647.152 58.0363Z" fill="#6BD6DC"></path><path d="M270.696 15.1424C270.696 19.5232 267.143 23.0762 262.762 23.0762C258.381 23.0762 254.828 19.5232 254.828 15.1424C254.828 10.7616 258.381 7.20868 262.762 7.20868C267.126 7.19143 270.696 10.7444 270.696 15.1424Z" fill="white"></path><path d="M262.745 23.9385C257.898 23.9385 253.949 19.9889 253.949 15.1424C253.949 10.2959 257.898 6.34631 262.745 6.34631C267.591 6.34631 271.541 10.2959 271.541 15.1424C271.558 19.9889 267.609 23.9385 262.745 23.9385ZM262.745 8.0538C258.847 8.0538 255.673 11.2273 255.673 15.1252C255.673 19.0231 258.847 22.1966 262.745 22.1966C266.643 22.1966 269.816 19.0231 269.816 15.1252C269.833 11.2273 266.66 8.0538 262.745 8.0538Z" fill="#6BD6DC"></path><path d="M262.745 19.1438C264.955 19.1438 266.746 17.3524 266.746 15.1425C266.746 12.9326 264.955 11.1411 262.745 11.1411C260.535 11.1411 258.744 12.9326 258.744 15.1425C258.744 17.3524 260.535 19.1438 262.745 19.1438Z" fill="#6BD6DC"></path><path d="M83.3894 155.172C83.3894 161.088 78.5946 165.883 72.6788 165.883C66.763 165.883 61.9683 161.088 61.9683 155.172C61.9683 149.256 66.763 144.461 72.6788 144.461C78.5946 144.479 83.3894 149.256 83.3894 155.172Z" fill="white"></path><path d="M72.6801 166.746C66.2986 166.746 61.1072 161.554 61.1072 155.173C61.1072 148.792 66.2986 143.6 72.6801 143.6C79.0616 143.6 84.253 148.792 84.253 155.173C84.253 161.554 79.0616 166.746 72.6801 166.746ZM72.6801 145.342C67.2472 145.342 62.8319 149.757 62.8319 155.19C62.8319 160.623 67.2472 165.038 72.6801 165.038C78.113 165.038 82.5283 160.623 82.5283 155.19C82.5283 149.757 78.113 145.342 72.6801 145.342Z" fill="#6BD6DC"></path><path d="M78.0785 155.173C78.0785 158.157 75.6639 160.571 72.6801 160.571C69.6964 160.571 67.2817 158.157 67.2817 155.173C67.2817 152.189 69.6964 149.775 72.6801 149.775C75.6639 149.775 78.0785 152.189 78.0785 155.173Z" fill="#6BD6DC"></path><path d="M161.468 15.1413C161.468 21.9195 155.966 27.4214 149.188 27.4214C142.41 27.4214 136.908 21.9195 136.908 15.1413C136.908 8.36313 142.41 2.86125 149.188 2.86125C155.983 2.844 161.468 8.34588 161.468 15.1413Z" fill="white"></path><path d="M135.531 15.1424C135.531 22.6708 141.66 28.8001 149.189 28.8001C156.717 28.8001 162.846 22.6708 162.846 15.1424C162.846 7.614 156.717 1.48474 149.189 1.48474C141.66 1.48474 135.531 7.614 135.531 15.1424ZM138.286 15.1252C138.286 9.11449 143.178 4.22274 149.189 4.22274C155.199 4.22274 160.091 9.11449 160.091 15.1252C160.091 21.1359 155.199 26.0276 149.189 26.0276C143.178 26.0276 138.286 21.1359 138.286 15.1252Z" fill="#EFF5F6" stroke="#EFF5F6" stroke-width="1.03052"></path><path d="M149.189 18.9885C151.313 18.9885 153.035 17.2666 153.035 15.1424C153.035 13.0182 151.313 11.2963 149.189 11.2963C147.064 11.2963 145.343 13.0182 145.343 15.1424C145.343 17.2666 147.064 18.9885 149.189 18.9885Z" fill="#EFF5F6"></path><path d="M706.154 194.616C706.154 201.395 700.652 206.896 693.874 206.896C687.095 206.896 681.594 201.395 681.594 194.616C681.594 187.838 687.095 182.336 693.874 182.336C700.652 182.319 706.154 187.821 706.154 194.616Z" fill="white"></path><path d="M693.857 207.76C686.614 207.76 680.715 201.861 680.715 194.618C680.715 187.374 686.614 181.475 693.857 181.475C701.101 181.475 707 187.374 707 194.618C707.017 201.861 701.119 207.76 693.857 207.76ZM693.857 183.2C687.562 183.2 682.44 188.322 682.44 194.618C682.44 200.913 687.562 206.035 693.857 206.035C700.153 206.035 705.275 200.913 705.275 194.618C705.292 188.322 700.17 183.2 693.857 183.2Z" fill="#EFF5F6"></path><path d="M693.858 198.464C695.982 198.464 697.704 196.742 697.704 194.618C697.704 192.493 695.982 190.771 693.858 190.771C691.733 190.771 690.011 192.493 690.011 194.618C690.011 196.742 691.733 198.464 693.858 198.464Z" fill="#EFF5F6"></path><path d="M359.433 198.567L366.867 157.312C350.068 139.806 307.329 130.199 307.329 130.199C307.329 130.199 317.695 186.477 359.433 198.567Z" fill="#6BD6DC"></path><path d="M362.486 181.682L362.727 180.371C343.6 157.76 315.935 138.012 315.659 137.805C315.435 137.633 315.108 137.702 314.952 137.926C314.78 138.15 314.849 138.478 315.073 138.65C315.332 138.857 343.428 158.916 362.486 181.682Z" fill="#25A0A7"></path><path d="M340.547 158.105C340.547 158.07 340.565 158.036 340.547 158.002C340.53 157.708 340.306 157.501 340.013 157.501C328.25 157.933 322.714 156.915 322.645 156.898C322.369 156.846 322.093 157.036 322.041 157.312C321.955 157.57 322.179 157.864 322.455 157.915C322.679 157.95 328.147 158.967 340.047 158.536C340.306 158.519 340.513 158.329 340.547 158.105Z" fill="#25A0A7"></path><path d="M348.55 158.467C349.585 152.724 349.361 147.826 349.361 147.757C349.343 147.463 349.102 147.256 348.826 147.274C348.533 147.291 348.326 147.532 348.326 147.808C348.326 147.895 348.705 156.311 346.101 163.883C346.015 164.159 346.153 164.452 346.429 164.538C346.704 164.624 346.998 164.486 347.084 164.211C347.739 162.313 348.222 160.347 348.55 158.467Z" fill="#25A0A7"></path><path d="M358.519 175.852C358.536 175.766 358.536 175.697 358.502 175.611C358.416 175.335 358.122 175.18 357.864 175.266C346.981 178.629 336.149 177.836 336.029 177.836C335.735 177.819 335.494 178.026 335.477 178.319C335.459 178.595 335.666 178.853 335.96 178.871C336.063 178.888 347.101 179.681 358.174 176.266C358.347 176.197 358.485 176.042 358.519 175.852Z" fill="#25A0A7"></path><path d="M602.913 173.576L587.908 127.284C604.499 104.518 652.154 86.7876 652.154 86.7876C652.154 86.7876 649.032 153.155 602.913 173.576Z" fill="#19B7BF"></path><path d="M596.773 154.638L596.29 153.172C614.761 124.18 643.495 97.1359 643.789 96.8427C644.03 96.6185 644.41 96.6358 644.634 96.8772C644.858 97.1187 644.841 97.4981 644.599 97.7223C644.306 97.9983 615.141 125.456 596.773 154.638Z" fill="#1B9EA5"></path><path d="M618.314 124.076C618.297 124.042 618.297 123.99 618.297 123.956C618.263 123.628 618.504 123.335 618.832 123.3C632.423 121.955 638.649 119.92 638.718 119.902C639.028 119.799 639.373 119.971 639.477 120.282C639.615 120.575 639.408 120.937 639.097 121.041C638.839 121.127 632.716 123.145 618.953 124.49C618.659 124.507 618.401 124.335 618.314 124.076Z" fill="#1B9EA5"></path><path d="M609.174 125.749C607.087 119.299 606.569 113.624 606.569 113.555C606.535 113.228 606.793 112.935 607.121 112.9C607.449 112.866 607.742 113.124 607.777 113.452C607.777 113.555 608.673 123.283 612.847 131.596C612.985 131.907 612.882 132.251 612.589 132.407C612.295 132.562 611.933 132.441 611.778 132.148C610.709 130.044 609.846 127.853 609.174 125.749Z" fill="#1B9EA5"></path><path d="M600.429 147.308C600.395 147.222 600.395 147.119 600.412 147.032C600.464 146.705 600.774 146.48 601.102 146.532C614.141 148.688 626.49 146.101 626.61 146.066C626.938 145.997 627.249 146.204 627.318 146.532C627.387 146.86 627.18 147.17 626.852 147.239C626.731 147.274 614.158 149.913 600.895 147.705C600.671 147.688 600.498 147.515 600.429 147.308Z" fill="#1B9EA5"></path><path d="M570.971 37.4086H387.839C372.817 37.4086 360.64 49.5851 360.64 64.6075V479.146C360.64 494.168 372.817 506.344 387.839 506.344H570.971C585.993 506.344 598.17 494.168 598.17 479.146V64.6075C598.17 49.5851 585.993 37.4086 570.971 37.4086Z" fill="#153A45"></path><path d="M509.346 46.5669C511.019 46.5669 512.382 47.9294 512.382 49.6024C512.382 51.2754 511.019 52.6379 509.346 52.6379C507.673 52.6379 506.311 51.2754 506.311 49.6024C506.311 47.9294 507.656 46.5669 509.346 46.5669Z" fill="#4B6066"></path><path d="M497.911 52.6379H449.464C447.791 52.6379 446.428 51.2754 446.428 49.6024C446.428 47.9294 447.791 46.5669 449.464 46.5669H497.911C499.584 46.5669 500.947 47.9294 500.947 49.6024C500.947 51.2754 499.584 52.6379 497.911 52.6379Z" fill="#4B6066"></path><path d="M568.677 60.9856H390.133C380.785 60.9856 373.196 68.5744 373.196 77.9224V465.831C373.196 475.179 380.785 482.768 390.133 482.768H568.677C578.025 482.768 585.614 475.179 585.614 465.831V77.9224C585.614 68.5744 578.025 60.9856 568.677 60.9856Z" fill="#FAFAF9"></path><path d="M568.677 60.9856H390.133C380.785 60.9856 373.196 68.5744 373.196 77.9224V79.5264C402.155 91.3408 433.355 120.834 444.842 190.995C464.831 313.123 505.776 374.023 585.631 388.408V77.9224C585.614 68.5744 578.025 60.9856 568.677 60.9856Z" fill="white"></path><path d="M502.137 506.362H411.313C425.249 402.309 537.08 368.987 537.08 368.987C537.08 368.987 539.77 441.046 502.137 506.362Z" fill="#0C7C83"></path><path d="M524.058 389.563C523.696 390.184 489.012 451.377 428.284 506.362H425.697C487.097 451.257 522.195 389.339 522.54 388.718C522.782 388.304 523.299 388.149 523.73 388.39C524.144 388.615 524.282 389.149 524.058 389.563Z" fill="#169BA3"></path><path d="M499.067 427.007C498.687 427.007 498.342 426.748 498.239 426.369C494.237 411.036 493.858 396.1 493.841 395.945C493.824 395.462 494.203 395.082 494.686 395.065C495.152 395.1 495.548 395.427 495.566 395.91C495.566 396.048 495.962 410.795 499.895 425.938C500.015 426.403 499.739 426.869 499.274 426.99C499.205 427.007 499.136 427.007 499.067 427.007Z" fill="#169BA3"></path><path d="M495.393 442.305C490.702 442.305 487.753 441.961 487.684 441.961C487.218 441.909 486.873 441.478 486.925 440.995C486.976 440.529 487.425 440.184 487.891 440.236C488.046 440.253 504.413 442.133 521.73 436.838C522.195 436.7 522.661 436.959 522.799 437.407C522.937 437.856 522.678 438.339 522.23 438.477C511.933 441.65 501.964 442.305 495.393 442.305Z" fill="#169BA3"></path><path d="M467.453 466.4C467.108 466.4 466.78 466.193 466.642 465.848C458.467 444.548 457.898 423.558 457.898 423.351C457.88 422.868 458.26 422.488 458.743 422.471C459.243 422.471 459.605 422.833 459.622 423.316C459.622 423.523 460.209 444.22 468.263 465.244C468.436 465.693 468.212 466.193 467.763 466.365C467.66 466.383 467.556 466.4 467.453 466.4Z" fill="#169BA3"></path><path d="M475.024 489.408C459.001 489.408 448.429 486.734 448.274 486.683C447.808 486.562 447.532 486.096 447.653 485.63C447.773 485.165 448.239 484.889 448.705 485.01C448.929 485.079 472.334 490.977 502.361 484.992C502.827 484.889 503.275 485.199 503.379 485.665C503.465 486.131 503.172 486.579 502.706 486.683C492.53 488.735 483.096 489.408 475.024 489.408Z" fill="#169BA3"></path><path opacity="0.35" d="M448.877 425.869C433.182 443.392 419.867 465.589 413.658 493.323L414.158 493.306C433.337 492.598 448.877 476.49 448.877 457.311V425.869Z" fill="black" fill-opacity="0.22"></path><path d="M444.014 139.633H430.13C426.094 139.633 422.817 142.91 422.817 146.946V314.313C422.817 318.349 426.094 321.626 430.13 321.626H444.014C448.05 321.626 451.327 318.349 451.327 314.313V146.946C451.327 142.91 448.05 139.633 444.014 139.633Z" fill="#0C7C82"></path><path d="M616.124 153.379H422.817V308.139H616.141C626.059 308.139 634.096 300.102 634.096 290.185V171.351C634.096 161.416 626.059 153.379 616.124 153.379Z" fill="#6BD6DC"></path><path d="M461.416 226.973H424.887V235.787H461.416V226.973Z" fill="white"></path><path d="M509.674 226.973H473.144V235.787H509.674V226.973Z" fill="white"></path><path d="M557.932 226.973H521.402V235.787H557.932V226.973Z" fill="white"></path><path d="M606.173 226.973H569.643V235.787H606.173V226.973Z" fill="white"></path><path d="M634.096 181.044H422.817V208.277H634.096V181.044Z" fill="#19B7BF"></path><path d="M437.08 146.946H422.817V314.314H437.08V146.946Z" fill="#0C7C82"></path><path d="M287.826 119.77C294.186 118.273 298.129 111.903 296.632 105.542C295.135 99.1817 288.765 95.239 282.404 96.736C276.044 98.2331 272.101 104.603 273.598 110.964C275.095 117.324 281.465 121.267 287.826 119.77Z" fill="#FFDC30"></path><path d="M259.916 93.6519C263.165 93.6519 265.798 91.0188 265.798 87.7706C265.798 84.5224 263.165 81.8893 259.916 81.8893C256.668 81.8893 254.035 84.5224 254.035 87.7706C254.035 91.0188 256.668 93.6519 259.916 93.6519Z" fill="#FFDC30"></path><path d="M135.081 178.664C134.046 182.424 132.908 183.631 129.199 184.545C132.908 185.459 134.046 186.666 135.081 190.426C136.116 186.666 137.254 185.459 140.962 184.545C137.254 183.631 136.116 182.424 135.081 178.664Z" fill="#FFDC30"></path><path d="M227.629 236.632C230.878 236.632 233.511 233.999 233.511 230.75C233.511 227.502 230.878 224.869 227.629 224.869C224.381 224.869 221.748 227.502 221.748 230.75C221.748 233.999 224.381 236.632 227.629 236.632Z" fill="#FFDC30"></path><path d="M153.121 211.399C151.552 217.108 149.827 218.953 144.187 220.333C149.827 221.713 151.552 223.541 153.121 229.267C154.691 223.558 156.415 221.713 162.055 220.333C156.415 218.953 154.691 217.125 153.121 211.399Z" fill="#FFDC30"></path><path d="M162.055 56.3634C160.486 62.0722 158.761 63.9177 153.121 65.2975C158.761 66.6773 160.486 68.5055 162.055 74.2316C163.625 68.5227 165.35 66.6773 170.989 65.2975C165.35 63.9005 163.625 62.0722 162.055 56.3634Z" fill="#FFDC30"></path><path d="M405.811 274.955L124.059 285.269C114.78 285.614 107.243 293.41 107.243 302.689V482.492C107.243 491.771 114.763 499.032 124.059 498.687L405.811 488.373C424.99 487.666 440.53 471.557 440.53 452.378V308.398C440.512 289.219 424.973 274.248 405.811 274.955Z" fill="#208C92"></path><path d="M399.774 283.441L118.023 292.91C108.744 293.22 101.207 300.378 101.207 308.898V473.92C101.207 482.44 108.727 489.097 118.023 488.787L399.774 479.318C418.953 478.68 434.493 463.882 434.493 446.29V314.141C434.493 296.549 418.953 282.803 399.774 283.441Z" fill="#0C7C82"></path><path d="M381.182 210.778C382.889 213.331 384.39 215.952 385.735 218.626C401.447 249.653 393.496 287.028 365.918 305.397C338.34 323.765 300.792 316.711 278.233 290.236C276.284 287.96 274.456 285.562 272.748 283.01C267.608 275.3 264.125 267.056 262.158 258.674C258.605 243.72 259.968 228.301 265.815 214.969C270.454 204.414 277.922 195.152 287.995 188.443C298.067 181.734 309.485 178.405 321.023 178.198C335.58 177.939 350.326 182.613 362.796 191.634C369.781 196.67 376.059 203.069 381.182 210.778Z" fill="url(#paint0_linear)"></path><path opacity="0.4" d="M385.752 218.626C401.465 249.653 393.514 287.028 365.935 305.397C338.357 323.765 300.81 316.711 278.25 290.236L385.752 218.626Z" fill="url(#paint1_linear)"></path><path d="M372.144 216.797C387.253 239.478 388.132 267.228 376.766 288.822C371.937 298.015 364.883 306.087 355.777 312.175L355.414 312.416C351.034 315.297 346.411 317.539 341.651 319.194C339.857 319.867 338.064 320.402 336.201 320.867C335.494 321.057 334.752 321.23 334.045 321.402C332.596 321.695 331.147 322.006 329.664 322.144C329.267 322.213 328.888 322.264 328.474 322.299C328.233 322.351 327.991 322.351 327.75 322.385C326.508 322.54 325.301 322.644 324.076 322.713C323.214 322.782 322.334 322.816 321.437 322.816C319.575 322.851 317.729 322.799 315.884 322.661C311.744 322.402 307.639 321.747 303.604 320.695C301.379 320.126 299.171 319.47 297.032 318.66C295.066 317.97 293.134 317.177 291.272 316.262C288.167 314.831 285.149 313.141 282.234 311.243C280.354 310.019 278.543 308.708 276.819 307.311C274.921 305.828 273.11 304.241 271.386 302.516C269.385 300.585 267.488 298.498 265.711 296.307C264.211 294.479 262.779 292.565 261.434 290.547C246.222 267.711 245.446 239.65 257.174 218.005C258.398 215.659 259.83 213.365 261.365 211.209C262.693 209.295 264.142 207.467 265.711 205.759C267.126 204.155 268.592 202.655 270.178 201.206C272.541 199.033 275.094 197.032 277.853 195.187L278.009 195.083C279.699 193.962 281.441 192.91 283.183 191.996C285.166 190.961 287.184 190.03 289.237 189.219C293.031 187.667 296.946 186.511 300.896 185.735L300.93 185.718C302.741 185.373 304.518 185.097 306.363 184.89C307.243 184.787 308.122 184.752 308.967 184.683L309.002 184.666C310.244 184.58 311.451 184.562 312.658 184.545C312.9 184.545 313.176 184.562 313.435 184.58C313.831 184.597 314.211 184.58 314.625 184.614C316.108 184.614 317.626 184.7 319.143 184.856C319.868 184.89 320.609 184.942 321.351 185.045C323.283 185.287 325.214 185.58 327.146 186.011C332.269 187.08 337.305 188.753 342.134 190.996C352.034 195.532 361.054 202.482 368.315 211.589C369.678 213.262 370.954 215.004 372.144 216.797Z" fill="url(#paint2_linear)"></path><path d="M357.743 226.439C374.749 251.965 369.505 285.338 346.049 300.964C341.772 303.81 337.219 305.862 332.51 307.19C330.682 307.69 328.836 308.104 326.974 308.363C324.663 308.725 322.282 308.932 319.937 308.967C316.505 309.001 313.072 308.708 309.675 308.07C309.589 308.053 309.589 308.053 309.485 308.035C304.639 307.07 299.861 305.448 295.342 303.154C289.823 300.429 284.683 296.704 280.147 292.099C277.457 289.408 274.973 286.39 272.766 283.079C271.093 280.578 269.661 277.991 268.419 275.369C262.59 263.141 261.365 249.809 264.297 237.787C265.815 231.458 268.506 225.507 272.3 220.299C275.525 215.763 279.63 211.761 284.476 208.536L284.994 208.191C292.1 203.569 300.016 201.137 308.088 200.619C310.451 200.464 312.831 200.481 315.194 200.671C317.126 200.792 319.057 201.085 320.989 201.447C321.834 201.585 322.662 201.775 323.524 201.999C323.611 202.016 323.662 202.103 323.714 202.051C336.891 205.345 349.257 213.693 357.743 226.439Z" fill="url(#paint3_linear)"></path><path d="M357.743 226.439C374.749 251.965 369.523 285.338 346.049 300.981C335.132 308.26 322.127 310.45 309.675 308.053C309.571 308.035 309.571 308.035 309.485 308.018C296.274 304.741 283.89 296.325 275.439 283.648C258.433 258.122 263.659 224.748 287.132 209.105C298.05 201.827 311.089 199.688 323.507 202.034C323.593 202.051 323.645 202.103 323.697 202.068C336.908 205.345 349.257 213.71 357.743 226.439Z" fill="#F29100"></path><path d="M338.495 244.652C335.942 243.772 333.183 243.807 330.216 244.738L330.182 244.686C331.544 242.806 332.251 240.702 332.338 238.374C332.424 236.063 331.786 233.855 330.406 231.802C329.302 230.147 328.095 228.87 326.784 227.974C325.473 227.077 324.111 226.525 322.714 226.335C321.317 226.145 319.782 226.266 318.109 226.715C316.608 227.111 315.125 227.732 313.642 228.456L308.174 220.264L302.276 224.196L307.502 232.027L302.741 235.2L297.515 227.37L291.617 231.302L296.843 239.15L287.339 245.497L293.169 254.258L297.308 251.499L312.4 274.196L308.122 277.042L314.073 285.976L323.766 279.526L329.078 287.494L334.976 283.562L329.664 275.593L334.425 272.42L339.737 280.388L345.635 276.456L340.237 268.349C341.237 267.556 342.151 266.745 342.945 265.918C344.411 264.4 345.549 262.779 346.342 261.088C347.136 259.381 347.446 257.622 347.256 255.759C347.084 253.896 346.36 252.051 345.135 250.188C343.255 247.377 341.047 245.531 338.495 244.652ZM334.028 266.09L328.25 269.936L308.209 239.84L313.986 235.994L334.028 266.09Z" fill="url(#paint4_linear)"></path><path d="M333.372 248.067C330.803 247.204 328.06 247.222 325.111 248.17L325.077 248.101C326.405 246.238 327.129 244.117 327.215 241.806C327.301 239.478 326.663 237.304 325.283 235.252C324.318 233.803 323.266 232.613 322.127 231.768C321.989 231.63 321.834 231.527 321.662 231.406C320.351 230.509 318.971 229.957 317.574 229.733C316.211 229.543 314.659 229.681 312.969 230.147C311.486 230.509 310.002 231.147 308.536 231.871L303.052 223.645L297.153 227.577L302.379 235.424L297.584 238.615L292.358 230.768L286.46 234.7L291.686 242.548L282.2 248.912L288.029 257.656L292.169 254.897L301.103 268.384L307.243 277.594L302.948 280.457L308.916 289.408L318.609 282.958L323.904 290.909L329.802 286.976L324.507 279.026L329.302 275.835L334.597 283.786L340.496 279.853L335.097 271.747C336.08 270.954 337.012 270.16 337.788 269.333C339.237 267.798 340.392 266.176 341.203 264.486C341.996 262.813 342.289 261.002 342.134 259.174C341.927 257.328 341.203 255.448 339.978 253.62C338.115 250.792 335.908 248.946 333.372 248.067ZM310.451 253.862L305.311 246.152L308.467 244.048C308.709 243.893 308.985 243.755 309.244 243.617C309.933 243.324 310.675 243.237 311.451 243.341C312.538 243.513 313.469 244.117 314.211 245.221C314.832 246.152 315.159 246.98 315.28 247.739C315.418 248.532 315.297 249.239 314.901 249.895C314.538 250.533 314.056 251.085 313.555 251.533C313.038 252.016 312.348 252.568 311.486 253.137L310.451 253.862ZM325.077 261.347C325.266 261.761 325.387 262.071 325.439 262.434C325.508 262.744 325.525 263.089 325.542 263.382C325.525 263.693 325.473 264.003 325.387 264.279C325.283 264.521 325.146 264.797 324.99 265.072C324.835 265.314 324.663 265.573 324.421 265.814C324.214 266.038 323.955 266.263 323.731 266.504C323.473 266.711 323.197 266.952 322.903 267.194C322.593 267.401 322.282 267.608 321.972 267.867C321.662 268.074 321.334 268.298 320.972 268.487L320.42 268.85L314.797 260.416C315.815 259.691 316.436 259.277 316.625 259.157C317.108 258.829 317.539 258.536 317.988 258.346C318.385 258.139 318.885 257.967 319.454 257.811C320.075 257.673 320.627 257.639 321.127 257.725C321.662 257.811 322.231 258.053 322.817 258.467C323.404 258.881 323.955 259.433 324.438 260.174C324.697 260.571 324.921 260.968 325.077 261.347Z" fill="url(#paint5_linear)"></path><path opacity="0.35" d="M309.571 296.549C304.207 282.13 294.531 270.057 282.251 262.209C272.558 256 261.244 252.448 249.171 252.43C249.568 265.452 253.535 278.698 261.434 290.547C262.779 292.565 264.211 294.479 265.711 296.307C267.488 298.498 269.385 300.585 271.386 302.516C273.11 304.224 274.921 305.828 276.819 307.311C278.543 308.725 280.354 310.036 282.234 311.243C285.149 313.158 288.167 314.831 291.272 316.262C293.134 317.177 295.083 317.97 297.032 318.66C299.188 319.47 301.379 320.126 303.604 320.695C307.105 321.609 310.658 322.196 314.245 322.506C314.228 313.33 312.572 304.586 309.571 296.549Z" fill="#C57900"></path><path d="M259.916 172.972C258.64 175.249 257.243 177.388 255.725 179.44C238.288 203.276 206.932 211.641 182.424 197.843C157.916 184.045 148.792 152.896 160.158 125.646C161.124 123.3 162.245 120.989 163.521 118.712C167.384 111.865 172.283 106.053 177.871 101.327C187.822 92.8759 200.016 87.9777 212.365 87.2705C222.145 86.7186 232.027 88.8056 240.979 93.8418C249.93 98.878 256.846 106.243 261.451 114.901C267.263 125.818 269.385 138.788 267.35 151.689C266.211 158.916 263.779 166.125 259.916 172.972Z" fill="url(#paint6_linear)"></path><path opacity="0.4" d="M255.742 179.44C238.305 203.276 206.95 211.64 182.441 197.843C157.933 184.045 148.809 152.896 160.175 125.646L255.742 179.44Z" fill="url(#paint7_linear)"></path><path d="M251.896 168.436C240.547 188.598 219.885 199.93 199.171 199.654C190.341 199.533 181.527 197.308 173.421 192.738L173.111 192.565C169.247 190.357 165.763 187.719 162.693 184.752C161.486 183.665 160.399 182.493 159.33 181.268C158.916 180.82 158.502 180.32 158.088 179.837C157.312 178.853 156.519 177.87 155.829 176.818C155.639 176.542 155.432 176.284 155.243 175.973C155.122 175.801 155.018 175.628 154.898 175.456C154.311 174.576 153.759 173.697 153.242 172.8C152.862 172.179 152.5 171.523 152.138 170.851C151.396 169.454 150.724 168.039 150.103 166.591C148.706 163.348 147.636 160.002 146.86 156.553C146.429 154.656 146.084 152.741 145.86 150.792C145.636 149.033 145.481 147.274 145.463 145.497C145.343 142.6 145.463 139.668 145.791 136.718C145.998 134.821 146.291 132.959 146.688 131.113C147.085 129.112 147.585 127.129 148.223 125.163C148.913 122.903 149.758 120.678 150.741 118.488C151.552 116.66 152.448 114.832 153.466 113.038C164.901 92.7379 185.839 81.3547 206.726 81.8894C208.968 81.9066 211.262 82.1136 213.487 82.4413C215.435 82.7172 217.384 83.1139 219.282 83.6313C221.041 84.0798 222.731 84.6144 224.456 85.2698C227.008 86.2357 229.509 87.3912 231.958 88.7538L232.096 88.84C233.597 89.6851 235.063 90.5992 236.425 91.5651C237.978 92.6689 239.444 93.8417 240.858 95.0835C243.497 97.3602 245.877 99.8783 247.981 102.569L247.998 102.586C248.964 103.828 249.861 105.07 250.706 106.38C251.12 107.001 251.482 107.657 251.862 108.278L251.879 108.295C252.414 109.209 252.897 110.106 253.379 111.02C253.466 111.192 253.569 111.417 253.655 111.624C253.793 111.934 253.966 112.21 254.087 112.538C254.673 113.659 255.173 114.849 255.639 116.056C255.898 116.608 256.139 117.195 256.346 117.798C256.898 119.35 257.415 120.92 257.846 122.558C259.002 126.853 259.675 131.303 259.847 135.822C260.227 145.049 258.45 154.569 254.328 163.572C253.621 165.211 252.793 166.849 251.896 168.436Z" fill="url(#paint8_linear)"></path><path d="M239.047 161.244C226.266 183.941 198.999 192.807 178.129 181.078C174.335 178.94 171.024 176.284 168.212 173.231C167.126 172.041 166.108 170.799 165.194 169.488C164.021 167.884 162.952 166.159 162.038 164.4C160.692 161.813 159.606 159.105 158.761 156.277C158.743 156.208 158.743 156.208 158.726 156.122C157.588 152.068 156.984 147.843 156.984 143.531C156.932 138.305 157.76 132.976 159.52 127.784C160.52 124.714 161.848 121.662 163.504 118.712C164.763 116.487 166.16 114.4 167.66 112.451C174.68 103.328 184.304 97.2739 194.514 94.8765C199.895 93.6002 205.415 93.3415 210.83 94.2039C215.504 94.8938 220.109 96.4633 224.421 98.8951L224.887 99.1539C231.113 102.759 236.011 107.812 239.495 113.728C240.53 115.453 241.427 117.263 242.186 119.126C242.841 120.644 243.359 122.196 243.824 123.8C244.031 124.49 244.221 125.197 244.376 125.922C244.393 125.991 244.359 126.06 244.411 126.094C246.98 137.357 245.428 149.93 239.047 161.244Z" fill="url(#paint9_linear)"></path><path d="M239.047 161.244C226.267 183.924 198.999 192.824 178.13 181.078C168.419 175.611 161.745 166.625 158.778 156.26C158.761 156.173 158.761 156.173 158.744 156.104C156.139 144.842 157.743 132.217 164.09 120.954C176.871 98.2743 204.138 89.3747 225.008 101.12C234.718 106.587 241.358 115.625 244.359 125.922C244.376 125.991 244.359 126.06 244.411 126.077C246.998 137.357 245.428 149.93 239.047 161.244Z" fill="#F29100"></path><path d="M217.85 153.69C217.54 151.413 216.453 149.343 214.591 147.446L214.608 147.412C216.557 147.722 218.419 147.446 220.213 146.618C222.007 145.79 223.421 144.462 224.439 142.634C225.267 141.168 225.767 139.754 225.939 138.409C226.112 137.063 226.008 135.822 225.629 134.7C225.249 133.579 224.559 132.458 223.576 131.354C222.697 130.371 221.662 129.492 220.541 128.647L224.646 121.351L219.403 118.402L215.487 125.37L211.245 122.99L215.16 116.022L209.917 113.072L205.984 120.04L197.516 115.297L193.135 123.093L196.809 125.163L185.443 145.308L181.631 143.169L177.164 151.12L185.77 155.966L181.786 163.055L187.029 166.004L191.013 158.916L195.256 161.296L191.272 168.384L196.515 171.334L200.568 164.124C201.552 164.573 202.517 164.952 203.449 165.228C205.174 165.746 206.812 165.987 208.416 165.953C210.003 165.901 211.469 165.452 212.797 164.607C214.125 163.762 215.263 162.503 216.195 160.865C217.626 158.346 218.178 155.966 217.85 153.69ZM199.913 158.571L194.773 155.673L209.83 128.923L214.97 131.82L199.913 158.571Z" fill="url(#paint10_linear)"></path><path d="M213.314 151.137C212.987 148.86 211.917 146.791 210.054 144.928L210.089 144.876C212.003 145.17 213.883 144.894 215.677 144.066C217.471 143.238 218.868 141.91 219.885 140.082C220.61 138.805 221.11 137.529 221.3 136.356C221.351 136.201 221.369 136.046 221.403 135.873C221.576 134.528 221.455 133.286 221.093 132.148C220.713 131.027 220.006 129.923 219.006 128.819C218.161 127.836 217.109 126.956 216.005 126.129L220.127 118.816L214.884 115.866L210.951 122.852L206.691 120.454L210.624 113.469L205.38 110.52L201.448 117.505L192.98 112.779L188.599 120.558L192.29 122.627L185.529 134.58L180.924 142.755L177.112 140.599L172.628 148.567L181.252 153.414L177.267 160.485L182.511 163.434L186.495 156.363L190.755 158.76L186.771 165.832L192.014 168.781L196.067 161.589C197.05 162.02 197.999 162.434 198.93 162.693C200.655 163.193 202.31 163.452 203.914 163.417C205.484 163.365 206.967 162.9 208.295 162.072C209.606 161.192 210.762 159.933 211.676 158.295C213.073 155.777 213.625 153.396 213.314 151.137ZM200.086 136.011L203.949 129.164L206.76 130.751C206.984 130.872 207.174 131.027 207.381 131.182C207.864 131.596 208.226 132.113 208.433 132.752C208.726 133.631 208.623 134.58 208.071 135.563C207.605 136.391 207.105 136.96 206.571 137.339C206.019 137.736 205.449 137.926 204.794 137.874C204.173 137.839 203.57 137.684 203.035 137.494C202.466 137.288 201.793 136.977 201.017 136.546L200.086 136.011ZM200.068 149.964C199.827 150.257 199.637 150.482 199.396 150.654C199.189 150.827 198.93 150.965 198.706 151.103C198.464 151.223 198.206 151.292 197.964 151.327C197.74 151.344 197.481 151.344 197.205 151.327C196.964 151.31 196.705 151.258 196.429 151.172C196.188 151.103 195.912 150.999 195.636 150.913C195.377 150.809 195.084 150.671 194.808 150.551C194.532 150.395 194.256 150.24 193.946 150.102C193.67 149.947 193.376 149.775 193.083 149.585L192.6 149.309L196.826 141.806C197.774 142.306 198.309 142.617 198.482 142.703C198.913 142.945 199.292 143.169 199.62 143.41C199.93 143.617 200.258 143.945 200.586 144.307C200.931 144.721 201.155 145.135 201.293 145.532C201.431 145.98 201.465 146.498 201.379 147.101C201.293 147.705 201.086 148.326 200.706 148.981C200.5 149.378 200.293 149.688 200.068 149.964Z" fill="url(#paint11_linear)"></path><path d="M242.307 315.642C242.307 318.712 242.117 321.73 241.755 324.696C237.633 359.243 210.296 385.924 177.164 385.924C144.032 385.924 116.678 359.225 112.59 324.696C112.228 321.713 112.038 318.712 112.038 315.642C112.038 306.38 113.711 297.584 116.712 289.512C122.041 275.093 131.717 263.02 143.997 255.173C153.707 248.964 165.056 245.393 177.164 245.393C189.271 245.393 200.62 248.964 210.33 255.173C222.593 263.02 232.286 275.093 237.65 289.512C240.651 297.584 242.307 306.38 242.307 315.642Z" fill="url(#paint12_linear)"></path><path opacity="0.4" d="M241.755 324.696C237.633 359.243 210.296 385.924 177.164 385.924C144.032 385.924 116.677 359.225 112.59 324.696H241.755V324.696Z" fill="url(#paint13_linear)"></path><path d="M231.458 315.641C231.458 342.892 216.798 366.469 195.377 378.146C186.253 383.13 175.922 385.941 164.952 385.941H164.521C159.295 385.907 154.19 385.217 149.309 383.941C147.446 383.509 145.653 382.958 143.842 382.302C143.152 382.078 142.445 381.802 141.755 381.543C140.375 380.991 139.013 380.439 137.702 379.75C137.34 379.594 136.977 379.422 136.615 379.232C136.391 379.129 136.184 379.008 135.96 378.904C134.839 378.353 133.769 377.766 132.717 377.145C131.958 376.714 131.217 376.266 130.458 375.765C128.888 374.748 127.388 373.713 125.905 372.557C122.61 370.039 119.558 367.228 116.781 364.124C115.246 362.416 113.78 360.657 112.435 358.794C111.193 357.121 110.02 355.396 108.968 353.585C107.174 350.671 105.605 347.601 104.225 344.393C103.345 342.34 102.552 340.236 101.896 338.115C101.138 335.821 100.517 333.51 100.034 331.112C99.4474 328.404 99.0162 325.61 98.7575 322.799C98.5333 320.453 98.3953 318.056 98.3953 315.641C98.3953 288.201 113.314 264.417 135.063 252.913C137.391 251.637 139.84 250.516 142.324 249.567C144.48 248.722 146.705 247.998 148.964 247.446C151.017 246.894 153.086 246.463 155.208 246.135C158.381 245.635 161.624 245.376 164.918 245.376H165.108C167.143 245.376 169.161 245.48 171.127 245.669C173.352 245.894 175.542 246.256 177.698 246.721C181.717 247.532 185.615 248.757 189.34 250.292H189.375C191.082 251.016 192.703 251.758 194.342 252.62C195.135 253.017 195.877 253.465 196.636 253.896H196.67C197.757 254.517 198.757 255.173 199.775 255.828C199.964 255.966 200.206 256.121 200.396 256.294C200.723 256.518 201.051 256.725 201.379 256.984C202.621 257.794 203.828 258.725 205.001 259.691C205.587 260.123 206.173 260.571 206.743 261.071C208.209 262.347 209.657 263.658 211.02 265.09C214.676 268.815 217.953 273.006 220.73 277.56C226.456 286.821 230.113 297.618 231.096 309.225C231.354 311.33 231.458 313.486 231.458 315.641Z" fill="url(#paint14_linear)"></path><path opacity="0.6" d="M231.165 309.191L195.377 378.146C186.253 383.13 175.922 385.941 164.953 385.941H164.521L220.782 277.542C226.508 286.787 230.182 297.584 231.165 309.191Z" fill="white"></path><path d="M214.125 315.676C214.125 346.359 191.255 371.212 163.073 371.212C157.933 371.212 153 370.402 148.361 368.884C146.567 368.297 144.791 367.607 143.1 366.797C140.979 365.814 138.875 364.675 136.926 363.399C134.046 361.536 131.372 359.381 128.871 356.949C128.802 356.88 128.802 356.88 128.733 356.811C125.232 353.31 122.162 349.325 119.679 344.91C116.609 339.581 114.384 333.63 113.176 327.283C112.418 323.558 112.038 319.66 112.038 315.676C112.038 312.675 112.262 309.726 112.693 306.845C114.625 293.427 121.007 281.664 130.096 273.282C134.873 268.867 140.393 265.4 146.446 263.175C151.638 261.175 157.278 260.14 163.09 260.14H163.711C172.179 260.243 180.13 262.589 187.133 266.642C189.185 267.815 191.151 269.16 193.014 270.643C194.549 271.816 195.998 273.127 197.395 274.507C198.016 275.093 198.602 275.714 199.189 276.369C199.258 276.438 199.258 276.525 199.327 276.525C208.45 286.563 214.125 300.36 214.125 315.676Z" fill="url(#paint15_linear)"></path><path d="M214.107 315.676C214.107 346.342 191.255 371.229 163.038 371.229C149.913 371.229 137.874 365.848 128.837 356.949C128.768 356.88 128.768 356.88 128.699 356.811C119.523 346.756 113.884 332.872 113.884 317.642C113.884 286.977 136.736 262.089 164.953 262.089C178.078 262.089 190.116 267.522 199.154 276.369C199.223 276.438 199.223 276.507 199.292 276.507C208.468 286.563 214.107 300.378 214.107 315.676Z" fill="#F29100"></path><path opacity="0.2" d="M197.378 274.489L148.344 368.884C146.55 368.297 144.773 367.607 143.083 366.797L192.997 270.643C194.532 271.816 195.963 273.127 197.378 274.489Z" fill="white"></path><path d="M305.932 327.646C305.932 330.716 305.742 333.734 305.38 336.7C301.258 371.247 273.921 397.928 240.789 397.928C207.657 397.928 180.303 371.229 176.215 336.7C175.853 333.717 175.663 330.716 175.663 327.646C175.663 318.384 177.336 309.588 180.337 301.516C185.667 287.097 195.342 275.024 207.623 267.177C217.333 260.968 228.681 257.397 240.789 257.397C252.897 257.397 264.245 260.968 273.956 267.177C286.218 275.024 295.911 287.097 301.275 301.516C304.259 309.588 305.932 318.384 305.932 327.646Z" fill="url(#paint16_linear)"></path><path opacity="0.4" d="M305.38 336.7C301.258 371.247 273.921 397.928 240.789 397.928C207.657 397.928 180.303 371.229 176.215 336.7H305.38V336.7Z" fill="url(#paint17_linear)"></path><path d="M295.083 327.646C295.083 354.896 280.423 378.473 259.002 390.15C249.878 395.134 239.547 397.945 228.578 397.945H228.147C222.921 397.911 217.816 397.221 212.935 395.945C211.072 395.514 209.278 394.962 207.467 394.306C206.777 394.082 206.07 393.806 205.38 393.547C204.001 392.996 202.638 392.444 201.327 391.754C200.965 391.598 200.603 391.426 200.241 391.236C200.016 391.133 199.81 391.012 199.585 390.909C198.464 390.357 197.395 389.77 196.343 389.149C195.584 388.718 194.842 388.27 194.083 387.77C192.514 386.752 191.013 385.717 189.53 384.562C186.219 382.044 183.183 379.232 180.406 376.128C178.871 374.42 177.405 372.661 176.06 370.798C174.818 369.125 173.645 367.401 172.593 365.59C170.8 362.675 169.23 359.605 167.85 356.397C166.971 354.344 166.177 352.24 165.522 350.119C164.763 347.825 164.142 345.514 163.659 343.116C163.073 340.409 162.642 337.615 162.383 334.803C162.159 332.458 162.021 330.06 162.021 327.646C162.021 300.205 176.94 276.421 198.688 264.917C201.017 263.641 203.466 262.52 205.95 261.571C208.105 260.726 210.33 260.002 212.59 259.45C214.642 258.898 216.712 258.467 218.833 258.139C222.007 257.639 225.249 257.38 228.543 257.38H228.733C230.768 257.38 232.786 257.484 234.752 257.673C236.977 257.898 239.168 258.26 241.324 258.726C245.342 259.536 249.24 260.761 252.966 262.296H253C254.708 263.02 256.329 263.762 257.967 264.624C258.761 265.021 259.502 265.469 260.261 265.9H260.296C261.382 266.521 262.383 267.177 263.4 267.832C263.59 267.97 263.831 268.125 264.021 268.298C264.349 268.522 264.676 268.729 265.004 268.988C266.246 269.798 267.453 270.73 268.626 271.695C269.213 272.127 269.799 272.575 270.368 273.075C271.834 274.352 273.283 275.662 274.645 277.094C278.302 280.819 281.579 285.01 284.356 289.564C290.082 298.825 293.738 309.622 294.721 321.23C294.98 323.317 295.083 325.49 295.083 327.646Z" fill="url(#paint18_linear)"></path><path d="M277.733 327.68C277.733 358.363 254.863 383.216 226.681 383.216C221.541 383.216 216.608 382.406 211.969 380.888C210.175 380.302 208.399 379.612 206.709 378.801C204.587 377.818 202.483 376.68 200.534 375.403C197.654 373.541 194.98 371.385 192.48 368.953C192.411 368.884 192.411 368.884 192.342 368.815C188.84 365.314 185.77 361.33 183.287 356.914C180.217 351.585 177.992 345.635 176.785 339.288C176.026 335.562 175.646 331.664 175.646 327.68C175.646 324.679 175.87 321.73 176.302 318.85C178.233 305.431 184.615 293.669 193.704 285.286C198.482 280.871 204.001 277.404 210.055 275.179C215.246 273.179 220.886 272.144 226.698 272.144H227.319C235.787 272.247 243.738 274.593 250.741 278.646C252.793 279.819 254.759 281.164 256.622 282.648C258.157 283.82 259.606 285.131 261.003 286.511C261.624 287.097 262.21 287.718 262.797 288.374C262.866 288.443 262.866 288.529 262.935 288.529C272.076 298.567 277.733 312.365 277.733 327.68Z" fill="url(#paint19_linear)"></path><path d="M277.733 327.68C277.733 358.346 254.88 383.233 226.664 383.233C213.538 383.233 201.5 377.852 192.462 368.953C192.393 368.884 192.393 368.884 192.324 368.815C183.149 358.76 177.509 344.876 177.509 329.646C177.509 298.981 200.362 274.093 228.578 274.093C241.703 274.093 253.742 279.526 262.779 288.374C262.848 288.443 262.848 288.511 262.917 288.511C272.093 298.567 277.733 312.364 277.733 327.68Z" fill="#F29100"></path><path d="M251.62 332.164C249.982 330.009 247.671 328.508 244.67 327.646V327.594C246.843 326.783 248.602 325.421 249.965 323.541C251.31 321.661 252 319.47 252 317.004C252 315.021 251.707 313.279 251.103 311.813C250.499 310.329 249.689 309.122 248.637 308.191C247.584 307.259 246.239 306.5 244.601 305.949C243.135 305.448 241.548 305.138 239.927 304.914V295.066H232.855V304.483H227.129V295.066H220.041V304.5L208.606 304.517V315.038H213.573L213.538 342.289H208.399V353.016H220.041V362.589H227.129V353.016H232.855V362.589H239.927V352.861C241.203 352.74 242.41 352.585 243.531 352.326C245.601 351.878 247.429 351.154 249.033 350.188C250.637 349.222 251.879 347.911 252.759 346.255C253.638 344.617 254.069 342.668 254.069 340.443C254.069 337.08 253.259 334.32 251.62 332.164ZM236.012 347.532H229.061V311.364H236.012V347.532Z" fill="url(#paint20_linear)"></path><path d="M245.48 332.164C243.825 330.026 241.531 328.508 238.547 327.663V327.594C240.686 326.783 242.462 325.421 243.825 323.541C245.187 321.661 245.86 319.488 245.86 317.021C245.86 315.297 245.635 313.71 245.153 312.382C245.118 312.192 245.049 312.02 244.963 311.83C244.376 310.347 243.531 309.139 242.496 308.173C241.462 307.259 240.099 306.518 238.443 305.966C237.012 305.448 235.425 305.155 233.804 304.931V295.048H226.732V304.482H220.989V295.048H213.918V304.482L202.483 304.517V315.021H207.467L207.433 331.198V342.254H202.276V353.016H213.918V362.571H220.989V353.016H226.732V362.571H233.804V352.844C235.063 352.723 236.27 352.585 237.374 352.326C239.444 351.843 241.289 351.154 242.91 350.188C244.497 349.222 245.756 347.894 246.636 346.273C247.481 344.617 247.929 342.668 247.929 340.443C247.912 337.063 247.102 334.303 245.48 332.164ZM223.18 324.282V315.021H226.974C227.267 315.021 227.56 315.055 227.854 315.09C228.595 315.228 229.251 315.572 229.837 316.09C230.648 316.832 231.096 317.866 231.096 319.177C231.096 320.281 230.906 321.161 230.579 321.868C230.251 322.609 229.768 323.127 229.061 323.454C228.388 323.782 227.698 323.972 227.026 324.075C226.319 324.179 225.439 324.265 224.404 324.265H223.18V324.282ZM231.217 338.615C231.148 339.063 231.062 339.391 230.924 339.719C230.82 340.012 230.63 340.305 230.475 340.564C230.285 340.822 230.078 341.047 229.854 341.219C229.63 341.374 229.371 341.512 229.078 341.65C228.819 341.771 228.526 341.875 228.199 341.944C227.905 342.013 227.578 342.064 227.233 342.133C226.905 342.168 226.526 342.202 226.163 342.237C225.801 342.237 225.422 342.237 225.025 342.271C224.663 342.271 224.249 342.271 223.852 342.237H223.197V332.095C224.456 332.061 225.18 332.061 225.404 332.061C225.991 332.061 226.508 332.061 226.991 332.13C227.44 332.164 227.957 332.32 228.509 332.492C229.095 332.716 229.578 333.009 229.94 333.337C230.337 333.699 230.682 334.217 230.941 334.889C231.2 335.545 231.338 336.321 231.338 337.218C231.32 337.77 231.286 338.218 231.217 338.615Z" fill="url(#paint21_linear)"></path><path opacity="0.6" d="M220.955 295.048V304.362L207.398 331.198L207.433 315.021H202.448V304.517L213.883 304.482V295.048H220.955Z" fill="white"></path><path opacity="0.6" d="M247.912 340.46C247.912 342.668 247.464 344.634 246.619 346.29C245.739 347.911 244.48 349.239 242.893 350.205C241.272 351.171 239.427 351.861 237.357 352.344C236.253 352.602 235.029 352.74 233.787 352.861V362.589H226.715V353.034H224.611L245.153 312.382C245.636 313.71 245.86 315.297 245.86 317.021C245.86 319.488 245.205 321.661 243.825 323.541C242.462 325.421 240.686 326.783 238.547 327.594V327.663C241.531 328.508 243.825 330.026 245.481 332.164C247.102 334.303 247.912 337.063 247.912 340.46Z" fill="white"></path><path opacity="0.6" d="M233.787 295.048V303.379L227.854 315.107C227.561 315.072 227.267 315.038 226.974 315.038H223.18V324.3H223.249L208.727 353.051H202.242V350.619L206.45 342.288L207.416 340.374L225.508 304.5H226.733V302.102L230.268 295.065H233.787V295.048Z" fill="white"></path><path d="M393.565 292.944H111.814C102.535 292.944 94.9978 300.464 94.9978 309.76V489.546C94.9978 498.825 102.518 506.362 111.814 506.362H393.565C412.744 506.362 428.284 490.822 428.284 471.643V327.663C428.284 308.484 412.727 292.944 393.565 292.944Z" fill="#6BD6DC"></path><path d="M381.751 353.034C347.515 422.437 215.815 339.408 168.592 506.362H393.566C412.745 506.362 428.284 490.822 428.284 471.643V327.663C428.284 318.436 424.662 310.053 418.781 303.844C406.277 314.262 393.186 329.819 381.751 353.034Z" fill="#19B7BF"></path><path d="M271.575 494.047C271.575 493.375 272.127 492.823 272.8 492.823H283.579C284.252 492.823 284.804 493.375 284.804 494.047C284.804 494.72 284.252 495.272 283.579 495.272H272.8C272.127 495.289 271.575 494.737 271.575 494.047ZM298.688 305.241C298.688 304.569 298.136 304.017 297.463 304.017H286.684C286.011 304.017 285.459 304.569 285.459 305.241C285.459 305.914 286.011 306.466 286.684 306.466H297.463C298.136 306.466 298.688 305.914 298.688 305.241ZM320.247 305.241C320.247 304.569 319.695 304.017 319.023 304.017H308.243C307.57 304.017 307.018 304.569 307.018 305.241C307.018 305.914 307.57 306.466 308.243 306.466H319.023C319.695 306.466 320.247 305.914 320.247 305.241ZM294.359 495.289H305.139C305.811 495.289 306.363 494.737 306.363 494.064C306.363 493.392 305.811 492.84 305.139 492.84H294.359C293.686 492.84 293.134 493.392 293.134 494.064C293.134 494.737 293.686 495.289 294.359 495.289ZM233.994 305.241C233.994 304.569 233.442 304.017 232.769 304.017H221.989C221.317 304.017 220.765 304.569 220.765 305.241C220.765 305.914 221.317 306.466 221.989 306.466H232.769C233.442 306.466 233.994 305.914 233.994 305.241ZM277.129 305.241C277.129 304.569 276.577 304.017 275.904 304.017H265.108C264.435 304.017 263.883 304.569 263.883 305.241C263.883 305.914 264.435 306.466 265.108 306.466H275.887C276.577 306.466 277.129 305.914 277.129 305.241ZM255.553 305.241C255.553 304.569 255.001 304.017 254.328 304.017H243.549C242.876 304.017 242.324 304.569 242.324 305.241C242.324 305.914 242.876 306.466 243.549 306.466H254.328C255.001 306.466 255.553 305.914 255.553 305.241ZM229.664 495.289H240.444C241.117 495.289 241.669 494.737 241.669 494.064C241.669 493.392 241.117 492.84 240.444 492.84H229.664C228.992 492.84 228.44 493.392 228.44 494.064C228.44 494.737 228.992 495.289 229.664 495.289ZM251.241 495.289H262.02C262.693 495.289 263.245 494.737 263.245 494.064C263.245 493.392 262.693 492.84 262.02 492.84H251.241C250.568 492.84 250.016 493.392 250.016 494.064C249.999 494.737 250.551 495.289 251.241 495.289ZM380.63 495.289H391.409C392.082 495.289 392.634 494.737 392.634 494.064C392.634 493.392 392.082 492.84 391.409 492.84H380.63C379.957 492.84 379.405 493.392 379.405 494.064C379.388 494.737 379.94 495.289 380.63 495.289ZM103.673 306.794C104.329 306.638 104.76 305.983 104.605 305.328C104.467 304.672 103.794 304.241 103.139 304.396C100.017 305.086 97.2227 306.707 95.0323 309.019C95.015 309.26 94.9978 309.501 94.9978 309.743V312.572C95.2393 312.485 95.4635 312.365 95.6359 312.14C97.5676 309.415 100.413 307.518 103.673 306.794ZM208.105 495.289H218.885C219.558 495.289 220.109 494.737 220.109 494.064C220.109 493.392 219.558 492.84 218.885 492.84H208.105C207.433 492.84 206.881 493.392 206.881 494.064C206.881 494.737 207.433 495.289 208.105 495.289ZM384.942 305.241C384.942 304.569 384.39 304.017 383.717 304.017H372.937C372.265 304.017 371.713 304.569 371.713 305.241C371.713 305.914 372.265 306.466 372.937 306.466H383.717C384.39 306.466 384.942 305.914 384.942 305.241ZM315.935 495.289H326.715C327.387 495.289 327.939 494.737 327.939 494.064C327.939 493.392 327.387 492.84 326.715 492.84H315.935C315.263 492.84 314.711 493.392 314.711 494.064C314.693 494.737 315.245 495.289 315.935 495.289ZM112.262 494.047C112.262 493.375 111.676 492.823 110.986 492.823C107.588 492.823 104.277 491.857 101.431 490.046C100.862 489.684 100.103 489.856 99.7408 490.425C99.3786 490.994 99.5511 491.753 100.12 492.116C103.363 494.185 107.123 495.272 110.986 495.272H111.072C111.745 495.289 112.262 494.737 112.262 494.047ZM359.053 495.289H369.833C370.506 495.289 371.058 494.737 371.058 494.064C371.058 493.392 370.506 492.84 369.833 492.84H359.053C358.381 492.84 357.829 493.392 357.829 494.064C357.829 494.737 358.381 495.289 359.053 495.289ZM341.806 305.241C341.806 304.569 341.254 304.017 340.582 304.017H329.802C329.129 304.017 328.578 304.569 328.578 305.241C328.578 305.914 329.129 306.466 329.802 306.466H340.582C341.254 306.466 341.806 305.914 341.806 305.241ZM337.494 495.289H348.274C348.947 495.289 349.498 494.737 349.498 494.064C349.498 493.392 348.947 492.84 348.274 492.84H337.494C336.822 492.84 336.27 493.392 336.27 494.064C336.27 494.737 336.822 495.289 337.494 495.289ZM363.382 305.241C363.382 304.569 362.831 304.017 362.158 304.017H351.378C350.706 304.017 350.154 304.569 350.154 305.241C350.154 305.914 350.706 306.466 351.378 306.466H362.158C362.831 306.466 363.382 305.914 363.382 305.241ZM121.852 495.289H132.631C133.304 495.289 133.856 494.737 133.856 494.064C133.856 493.392 133.304 492.84 132.631 492.84H121.852C121.179 492.84 120.627 493.392 120.627 494.064C120.627 494.737 121.162 495.289 121.852 495.289ZM417.211 401.188C417.211 400.515 416.659 399.963 415.987 399.963C415.314 399.963 414.762 400.515 414.762 401.188V411.967C414.762 412.64 415.314 413.192 415.987 413.192C416.659 413.192 417.211 412.64 417.211 411.967V401.188ZM417.211 358.07C417.211 357.397 416.659 356.845 415.987 356.845C415.314 356.845 414.762 357.397 414.762 358.07V368.849C414.762 369.522 415.314 370.074 415.987 370.074C416.659 370.074 417.211 369.522 417.211 368.849V358.07ZM417.211 379.629C417.211 378.956 416.659 378.404 415.987 378.404C415.314 378.404 414.762 378.956 414.762 379.629V390.408C414.762 391.081 415.314 391.633 415.987 391.633C416.659 391.633 417.211 391.081 417.211 390.408V379.629ZM417.211 422.764C417.211 422.092 416.659 421.54 415.987 421.54C415.314 421.54 414.762 422.092 414.762 422.764V433.544C414.762 434.216 415.314 434.768 415.987 434.768C416.659 434.768 417.211 434.216 417.211 433.544V422.764ZM415.9 326.956C415.935 326.956 415.969 326.956 416.004 326.956C416.677 326.904 417.177 326.3 417.125 325.628C416.797 321.851 415.556 318.16 413.503 314.969C413.141 314.4 412.382 314.227 411.813 314.589C411.244 314.952 411.071 315.71 411.433 316.297C413.262 319.16 414.383 322.454 414.676 325.852C414.728 326.473 415.262 326.956 415.9 326.956ZM405.362 307.173C402.085 305.276 398.343 304.189 394.548 304.034C393.893 304 393.289 304.534 393.272 305.207C393.238 305.88 393.772 306.466 394.445 306.483C397.843 306.621 401.206 307.587 404.138 309.295C404.328 309.398 404.552 309.467 404.759 309.467C405.19 309.467 405.604 309.243 405.828 308.846C406.156 308.26 405.949 307.501 405.362 307.173ZM415.969 464.658C415.297 464.658 414.745 465.21 414.745 465.882V471.643C414.745 473.23 414.572 474.817 414.227 476.352C414.072 477.007 414.486 477.68 415.159 477.818C415.245 477.835 415.349 477.852 415.435 477.852C416.004 477.852 416.504 477.473 416.625 476.886C417.022 475.179 417.211 473.402 417.211 471.626V465.865C417.211 465.21 416.659 464.658 415.969 464.658ZM415.969 335.269C415.297 335.269 414.745 335.821 414.745 336.493V347.273C414.745 347.946 415.297 348.498 415.969 348.498C416.642 348.498 417.194 347.946 417.194 347.273V336.493C417.211 335.821 416.659 335.269 415.969 335.269ZM409.691 485.372C407.484 487.959 404.655 490.011 401.516 491.288C400.895 491.546 400.585 492.254 400.844 492.892C401.033 493.375 401.499 493.668 401.982 493.668C402.137 493.668 402.292 493.633 402.448 493.582C405.949 492.167 409.105 489.873 411.571 486.993C412.02 486.476 411.951 485.7 411.433 485.268C410.916 484.785 410.14 484.854 409.691 485.372ZM143.411 495.289H154.19C154.863 495.289 155.415 494.737 155.415 494.064C155.415 493.392 154.863 492.84 154.19 492.84H143.411C142.738 492.84 142.186 493.392 142.186 494.064C142.186 494.737 142.738 495.289 143.411 495.289ZM169.299 305.241C169.299 304.569 168.747 304.017 168.074 304.017H157.295C156.622 304.017 156.07 304.569 156.07 305.241C156.07 305.914 156.622 306.466 157.295 306.466H168.074C168.747 306.466 169.299 305.914 169.299 305.241ZM417.211 444.323C417.211 443.651 416.659 443.099 415.987 443.099C415.314 443.099 414.762 443.651 414.762 444.323V455.103C414.762 455.776 415.314 456.327 415.987 456.327C416.659 456.327 417.211 455.776 417.211 455.103V444.323ZM164.97 495.289H175.75C176.422 495.289 176.974 494.737 176.974 494.064C176.974 493.392 176.422 492.84 175.75 492.84H164.97C164.297 492.84 163.745 493.392 163.745 494.064C163.745 494.737 164.297 495.289 164.97 495.289ZM186.546 495.289H197.326C197.998 495.289 198.55 494.737 198.55 494.064C198.55 493.392 197.998 492.84 197.326 492.84H186.546C185.874 492.84 185.322 493.392 185.322 494.064C185.304 494.737 185.856 495.289 186.546 495.289ZM190.858 305.241C190.858 304.569 190.306 304.017 189.634 304.017H178.854C178.181 304.017 177.629 304.569 177.629 305.241C177.629 305.914 178.181 306.466 178.854 306.466H189.634C190.306 306.466 190.858 305.914 190.858 305.241ZM126.164 305.241C126.164 304.569 125.612 304.017 124.939 304.017H114.16C113.487 304.017 112.935 304.569 112.935 305.241C112.935 305.914 113.487 306.466 114.16 306.466H124.939C125.612 306.466 126.164 305.914 126.164 305.241ZM147.74 305.241C147.74 304.569 147.188 304.017 146.515 304.017H135.736C135.063 304.017 134.511 304.569 134.511 305.241C134.511 305.914 135.063 306.466 135.736 306.466H146.515C147.188 306.466 147.74 305.914 147.74 305.241ZM212.434 305.241C212.434 304.569 211.883 304.017 211.21 304.017H200.43C199.758 304.017 199.206 304.569 199.206 305.241C199.206 305.914 199.758 306.466 200.43 306.466H211.21C211.883 306.466 212.434 305.914 212.434 305.241Z" fill="#EBF8F9"></path><path d="M440.513 368.539H400.033C387.546 368.539 376.784 378.146 376.197 390.615C375.577 403.947 386.184 414.934 399.378 414.934H440.513V368.539V368.539Z" fill="#6BD6DC"></path><path d="M440.444 373.334H396.325C383.838 373.334 373.076 382.94 372.489 395.41C371.868 408.742 382.475 419.729 395.67 419.729H440.444C442.858 419.729 444.824 417.763 444.824 415.348V377.714C444.824 375.3 442.858 373.334 440.444 373.334Z" fill="#EBF8F9"></path><path d="M399.498 396.548C399.498 401.447 395.531 405.414 390.633 405.414C385.735 405.414 381.768 401.447 381.768 396.548C381.768 391.65 385.735 387.683 390.633 387.683C395.531 387.683 399.498 391.65 399.498 396.548Z" fill="#6BD6DC"></path><path d="M111.089 300.792L57.1745 306.708C36.0638 283.458 27.4919 227.439 27.4919 227.439C27.4919 227.439 99.2061 245.842 111.089 300.792Z" fill="#19B7BF"></path><path d="M89.0129 303.206L87.3054 303.396C59.8305 276.68 36.8054 239.219 36.564 238.822C36.3742 238.512 36.4777 238.098 36.7882 237.908C37.0986 237.718 37.5126 237.822 37.7195 238.132C37.9438 238.529 61.3311 276.576 89.0129 303.206Z" fill="#31737A"></path><path d="M60.5375 272.799C60.4858 272.799 60.434 272.799 60.3995 272.799C60.0373 272.765 59.7614 272.437 59.8131 272.058C61.4344 256.915 60.6065 249.671 60.5893 249.602C60.5375 249.24 60.8135 248.895 61.1757 248.86C61.5206 248.774 61.8828 249.084 61.9173 249.447C61.9518 249.74 62.7624 256.897 61.1412 272.213C61.0894 272.523 60.848 272.765 60.5375 272.799Z" fill="#31737A"></path><path d="M60.296 283.165C52.7934 283.993 46.4809 283.268 46.3947 283.251C46.0325 283.199 45.7738 282.872 45.8083 282.51C45.86 282.147 46.1877 281.889 46.5499 281.923C46.6534 281.94 57.4847 283.182 67.5053 280.492C67.8675 280.405 68.2297 280.612 68.3159 280.957C68.4194 281.319 68.1952 281.682 67.8503 281.785C65.3149 282.458 62.7451 282.889 60.296 283.165Z" fill="#31737A"></path><path d="M81.8554 297.566C81.752 297.584 81.6485 297.566 81.545 297.532C81.2 297.394 81.0276 297.015 81.1656 296.67C86.4777 282.924 86.426 268.867 86.426 268.729C86.426 268.367 86.7192 268.056 87.0814 268.056C87.4436 268.056 87.754 268.35 87.754 268.712C87.754 268.85 87.7885 283.182 82.4074 297.153C82.3039 297.394 82.0969 297.549 81.8554 297.566Z" fill="#31737A"></path><path d="M405.983 269.057C404.949 272.817 403.81 274.024 400.102 274.938C403.81 275.852 404.949 277.059 405.983 280.819C407.018 277.059 408.157 275.852 411.865 274.938C408.139 274.024 407.018 272.817 405.983 269.057Z" fill="#FFDC30"></path><path d="M243.807 303.43C242.238 309.139 240.513 310.985 234.873 312.364C240.513 313.744 242.238 315.572 243.807 321.299C245.377 315.59 247.101 313.744 252.741 312.364C247.101 310.985 245.394 309.157 243.807 303.43Z" fill="#FFDC30"></path><path d="M409.442 204.606C414.939 199.11 414.939 190.199 409.442 184.703C403.946 179.207 395.035 179.207 389.539 184.703C384.043 190.199 384.043 199.11 389.539 204.606C395.035 210.102 403.946 210.102 409.442 204.606Z" fill="#FFDC30"></path><path d="M211.141 312.623L115.281 289.512L19.4206 312.623C19.4206 312.623 7.79596 461.415 115.281 510.225C222.766 461.415 211.141 312.623 211.141 312.623Z" fill="#153A45"></path><path d="M115.281 301.378L29.7515 322.006C29.7515 322.006 19.3686 454.792 115.281 498.325V301.378Z" fill="#EBF8F9"></path><path d="M115.281 301.378L200.81 322.006C200.81 322.006 211.193 454.792 115.281 498.325V301.378Z" fill="#EBF8F9"></path><path d="M115.281 425.386C138.808 425.386 157.881 406.313 157.881 382.785C157.881 359.257 138.808 340.184 115.281 340.184C91.7529 340.184 72.6799 359.257 72.6799 382.785C72.6799 406.313 91.7529 425.386 115.281 425.386Z" fill="#6BD6DC"></path><path d="M109.986 401.309L91.3931 382.716L95.0495 379.06L109.986 393.996L137.892 366.09L141.548 369.746L109.986 401.309Z" fill="white"></path><path d="M440.512 506.362H370.575C346.791 473.592 343.669 400.584 343.669 400.584C343.669 400.584 433.01 434.251 440.512 506.362Z" fill="#14969D"></path><path d="M411.882 506.362H409.657C378.198 468.263 353.948 417.004 353.69 416.469C353.483 416.038 353.672 415.538 354.104 415.331C354.535 415.124 355.052 415.313 355.259 415.745C355.501 416.279 380.13 468.332 411.882 506.362Z" fill="#48B9BF"></path><path d="M379.647 463.364C379.578 463.364 379.526 463.364 379.457 463.347C378.991 463.244 378.698 462.778 378.801 462.329C382.993 443.15 382.958 433.733 382.958 433.647C382.958 433.164 383.337 432.785 383.82 432.785C384.269 432.716 384.683 433.164 384.683 433.647C384.683 434.027 384.734 443.306 380.492 462.709C380.405 463.088 380.043 463.364 379.647 463.364Z" fill="#48B9BF"></path><path d="M377.888 476.61C368.143 476.61 360.175 474.799 360.071 474.765C359.605 474.661 359.312 474.196 359.433 473.73C359.536 473.264 360.002 472.971 360.468 473.074C360.606 473.109 374.3 476.214 387.529 474.178C388.012 474.109 388.443 474.437 388.512 474.903C388.581 475.368 388.253 475.817 387.787 475.886C384.424 476.42 381.061 476.61 377.888 476.61Z" fill="#48B9BF"></path><path d="M403.5 498.118C403.362 498.118 403.224 498.083 403.103 498.014C402.672 497.79 402.517 497.272 402.741 496.858C411.468 479.991 413.4 461.95 413.417 461.778C413.469 461.295 413.9 460.967 414.366 461.001C414.831 461.053 415.176 461.467 415.142 461.95C415.124 462.14 413.158 480.491 404.293 497.652C404.103 497.945 403.81 498.118 403.5 498.118Z" fill="#48B9BF"></path><path d="M112.297 281.768C112.297 281.768 137.461 261.778 121.662 225.611C87.7198 260.019 112.297 281.768 112.297 281.768Z" fill="#6BD6DC"></path><path d="M606.19 452.878C606.19 452.878 633.251 470.246 662.364 443.599C618.815 422.609 606.19 452.878 606.19 452.878Z" fill="#6BD6DC"></path><path d="M84.2876 205.5C84.2876 205.5 107.709 224.266 93.2044 254.396C70.438 234.528 84.2876 205.5 84.2876 205.5Z" fill="#6BD6DC"></path><path d="M641.857 396.876C641.857 396.876 641.133 426.869 608.38 433.613C610.381 403.465 641.857 396.876 641.857 396.876Z" fill="#6BD6DC"></path><path d="M481.802 98.964C478.715 98.964 476.197 96.0838 476.197 92.5308V85.0628C476.197 81.5271 478.715 78.6295 481.802 78.6295C484.889 78.6295 487.408 81.5098 487.408 85.0628V92.5308C487.408 96.0838 484.889 98.964 481.802 98.964ZM481.802 80.2853C479.612 80.2853 477.835 82.4239 477.835 85.0628V92.5308C477.835 95.1697 479.612 97.3083 481.802 97.3083C483.993 97.3083 485.769 95.1697 485.769 92.5308V85.0628C485.769 82.4239 483.993 80.2853 481.802 80.2853Z" fill="#EFF5F6"></path><path d="M485.256 81.8982L477.474 95.8059L478.904 96.606L486.686 82.6982L485.256 81.8982Z" fill="#EFF5F6"></path><path d="M485.769 137.891C482.682 137.891 480.164 135.011 480.164 131.458V123.99C480.164 120.454 482.682 117.557 485.769 117.557C488.856 117.557 491.374 120.437 491.374 123.99V131.458C491.374 134.994 488.856 137.891 485.769 137.891ZM485.769 119.195C483.579 119.195 481.802 121.334 481.802 123.973V131.441C481.802 134.08 483.579 136.218 485.769 136.218C487.959 136.218 489.736 134.08 489.736 131.441V123.973C489.736 121.351 487.959 119.195 485.769 119.195Z" fill="#EFF5F6"></path><path d="M489.198 120.791L481.416 134.699L482.846 135.499L490.628 121.591L489.198 120.791Z" fill="#EFF5F6"></path><path d="M502.861 137.891C499.774 137.891 497.256 135.011 497.256 131.458V123.99C497.256 120.454 499.774 117.557 502.861 117.557C505.948 117.557 508.467 120.437 508.467 123.99V131.458C508.484 134.994 505.966 137.891 502.861 137.891ZM502.861 119.195C500.671 119.195 498.894 121.334 498.894 123.973V131.441C498.894 134.08 500.671 136.218 502.861 136.218C505.052 136.218 506.828 134.08 506.828 131.441V123.973C506.845 121.351 505.052 119.195 502.861 119.195Z" fill="#EFF5F6"></path><path d="M506.322 120.805L498.54 134.712L499.97 135.512L507.751 121.605L506.322 120.805Z" fill="#EFF5F6"></path><path d="M519.97 137.891C516.883 137.891 514.365 135.011 514.365 131.458V123.99C514.365 120.454 516.883 117.557 519.97 117.557C523.058 117.557 525.576 120.437 525.576 123.99V131.458C525.576 134.994 523.058 137.891 519.97 137.891ZM519.97 119.195C517.78 119.195 516.004 121.334 516.004 123.973V131.441C516.004 134.08 517.78 136.218 519.97 136.218C522.161 136.218 523.937 134.08 523.937 131.441V123.973C523.937 121.351 522.161 119.195 519.97 119.195Z" fill="#EFF5F6"></path><path d="M523.395 120.785L515.614 134.693L517.044 135.493L524.825 121.585L523.395 120.785Z" fill="#EFF5F6"></path><path d="M426.697 98.964C423.61 98.964 421.092 96.0838 421.092 92.5308V85.0628C421.092 81.5271 423.61 78.6295 426.697 78.6295C429.785 78.6295 432.303 81.5098 432.303 85.0628V92.5308C432.303 96.0838 429.785 98.964 426.697 98.964ZM426.697 80.2853C424.507 80.2853 422.73 82.4239 422.73 85.0628V92.5308C422.73 95.1697 424.507 97.3083 426.697 97.3083C428.888 97.3083 430.664 95.1697 430.664 92.5308V85.0628C430.664 82.4239 428.888 80.2853 426.697 80.2853Z" fill="#EFF5F6"></path><path d="M430.129 81.8747L422.347 95.7825L423.777 96.5825L431.559 82.6748L430.129 81.8747Z" fill="#EFF5F6"></path><path d="M408.381 98.964C405.293 98.964 402.775 96.0838 402.775 92.5308V85.0628C402.775 81.5271 405.293 78.6295 408.381 78.6295C411.468 78.6295 413.986 81.5098 413.986 85.0628V92.5308C414.003 96.0838 411.485 98.964 408.381 98.964ZM408.381 80.2853C406.19 80.2853 404.414 82.4239 404.414 85.0628V92.5308C404.414 95.1697 406.19 97.3083 408.381 97.3083C410.571 97.3083 412.347 95.1697 412.347 92.5308V85.0628C412.365 82.4239 410.571 80.2853 408.381 80.2853Z" fill="#EFF5F6"></path><path d="M411.846 81.8923L404.064 95.8L405.494 96.6001L413.276 82.6923L411.846 81.8923Z" fill="#EFF5F6"></path><path d="M514.503 98.964C511.416 98.964 508.898 96.0838 508.898 92.5308V85.0628C508.898 81.5271 511.416 78.6295 514.503 78.6295C517.59 78.6295 520.108 81.5098 520.108 85.0628V92.5308C520.108 96.0838 517.59 98.964 514.503 98.964ZM514.503 80.2853C512.313 80.2853 510.536 82.4239 510.536 85.0628V92.5308C510.536 95.1697 512.313 97.3083 514.503 97.3083C516.693 97.3083 518.47 95.1697 518.47 92.5308V85.0628C518.47 82.4239 516.693 80.2853 514.503 80.2853Z" fill="#EFF5F6"></path><path d="M517.973 81.9035L510.188 95.8097L511.617 96.6101L519.402 82.7039L517.973 81.9035Z" fill="#EFF5F6"></path><path d="M564.761 99.4124C561.674 99.4124 559.156 96.5321 559.156 92.9792V85.5111C559.156 81.9754 561.674 79.0779 564.761 79.0779C567.849 79.0779 570.367 81.9582 570.367 85.5111V92.9792C570.367 96.5321 567.849 99.4124 564.761 99.4124ZM564.761 80.7336C562.571 80.7336 560.795 82.8723 560.795 85.5111V92.9792C560.795 95.618 562.571 97.7567 564.761 97.7567C566.952 97.7567 568.728 95.618 568.728 92.9792V85.5111C568.728 82.8723 566.952 80.7336 564.761 80.7336Z" fill="#EFF5F6"></path><path d="M568.212 82.3676L560.429 96.2738L561.859 97.074L569.642 83.1678L568.212 82.3676Z" fill="#EFF5F6"></path><path d="M564.761 123.731C562.519 123.731 560.708 121.644 560.708 119.092V113.693C560.708 111.141 562.519 109.054 564.761 109.054C567.004 109.054 568.815 111.141 568.815 113.693V119.092C568.815 121.644 566.986 123.731 564.761 123.731ZM564.761 110.227C563.175 110.227 561.898 111.779 561.898 113.676V119.074C561.898 120.989 563.192 122.524 564.761 122.524C566.348 122.524 567.624 120.972 567.624 119.074V113.676C567.624 111.779 566.331 110.227 564.761 110.227Z" fill="#EFF5F6"></path><path d="M567.239 111.393L561.612 121.446L562.65 122.027L568.277 111.974L567.239 111.393Z" fill="#EFF5F6"></path><path d="M564.761 145.221C562.519 145.221 560.708 143.134 560.708 140.582V135.183C560.708 132.631 562.519 130.544 564.761 130.544C567.004 130.544 568.815 132.631 568.815 135.183V140.582C568.815 143.152 566.986 145.221 564.761 145.221ZM564.761 131.734C563.175 131.734 561.898 133.286 561.898 135.183V140.582C561.898 142.496 563.192 144.031 564.761 144.031C566.348 144.031 567.624 142.479 567.624 140.582V135.183C567.624 133.286 566.331 131.734 564.761 131.734Z" fill="#EFF5F6"></path><path d="M567.258 132.875L561.632 142.929L562.671 143.51L568.296 133.456L567.258 132.875Z" fill="#EFF5F6"></path><path d="M499.808 98.1534H498.17V81.3718L495.686 83.7175L494.565 82.5274L498.429 78.871L499.808 79.4574V98.1534Z" fill="#EFF5F6"></path><path d="M502.861 97.3257H495.117V98.9642H502.861V97.3257Z" fill="#EFF5F6"></path><path d="M540.771 98.4812H539.132V81.6996L536.631 84.0452L535.51 82.8552L539.391 79.1987L540.771 79.8024V98.4812Z" fill="#EFF5F6"></path><path d="M543.823 97.6533H536.079V99.2918H543.823V97.6533Z" fill="#EFF5F6"></path><path d="M403.879 136.253H402.241V119.471L399.757 121.834L398.619 120.627L402.499 116.97L403.879 117.574V136.253Z" fill="#EFF5F6"></path><path d="M406.932 135.442H399.188V137.081H406.932V135.442Z" fill="#EFF5F6"></path><path d="M403.448 162.934H402.448V152.775L400.947 154.19L400.257 153.465L402.603 151.258L403.448 151.62V162.934Z" fill="#EFF5F6"></path><path d="M405.293 162.434H400.602V163.434H405.293V162.434Z" fill="#EFF5F6"></path><path d="M470.092 136.253H468.453V119.471L465.969 121.834L464.831 120.627L468.712 116.97L470.092 117.574V136.253Z" fill="#EFF5F6"></path><path d="M473.144 135.442H465.4V137.081H473.144V135.442Z" fill="#EFF5F6"></path><path d="M451.085 98.1534H449.446V81.3718L446.963 83.7175L445.824 82.5274L449.705 78.871L451.085 79.4574V98.1534Z" fill="#EFF5F6"></path><path d="M454.138 97.3257H446.394V98.9642H454.138V97.3257Z" fill="#EFF5F6"></path><path d="M488.391 344.082C485.303 344.082 482.785 341.202 482.785 337.649V330.181C482.785 326.645 485.303 323.748 488.391 323.748C491.478 323.748 493.996 326.628 493.996 330.181V337.649C493.996 341.202 491.478 344.082 488.391 344.082ZM488.391 325.403C486.2 325.403 484.424 327.542 484.424 330.181V337.649C484.424 340.288 486.2 342.426 488.391 342.426C490.581 342.426 492.358 340.288 492.358 337.649V330.181C492.358 327.542 490.581 325.403 488.391 325.403Z" fill="#EFF5F6"></path><path d="M491.829 326.988L484.047 340.896L485.477 341.696L493.259 327.788L491.829 326.988Z" fill="#EFF5F6"></path><path d="M557.932 387.632C554.845 387.632 552.326 384.751 552.326 381.198V373.73C552.326 370.195 554.845 367.297 557.932 367.297C561.019 367.297 563.537 370.177 563.537 373.73V381.198C563.537 384.751 561.019 387.632 557.932 387.632ZM557.932 368.953C555.741 368.953 553.965 371.091 553.965 373.73V381.198C553.965 383.837 555.741 385.976 557.932 385.976C560.122 385.976 561.899 383.837 561.899 381.198V373.73C561.899 371.109 560.122 368.953 557.932 368.953Z" fill="#EFF5F6"></path><path d="M561.369 370.54L553.588 384.448L555.018 385.248L562.799 371.34L561.369 370.54Z" fill="#EFF5F6"></path><path d="M557.932 416.176C555.603 416.176 553.706 414.003 553.706 411.329V405.707C553.706 403.033 555.603 400.86 557.932 400.86C560.26 400.86 562.157 403.033 562.157 405.707V411.329C562.157 414.003 560.26 416.176 557.932 416.176ZM557.932 402.102C556.276 402.102 554.948 403.723 554.948 405.707V411.329C554.948 413.313 556.293 414.934 557.932 414.934C559.588 414.934 560.916 413.313 560.916 411.329V405.707C560.916 403.723 559.588 402.102 557.932 402.102Z" fill="#EFF5F6"></path><path d="M560.532 403.285L554.671 413.761L555.754 414.367L561.616 403.892L560.532 403.285Z" fill="#EFF5F6"></path><path d="M557.932 440.408C555.603 440.408 553.706 438.235 553.706 435.562V429.939C553.706 427.266 555.603 425.093 557.932 425.093C560.26 425.093 562.157 427.266 562.157 429.939V435.562C562.157 438.235 560.26 440.408 557.932 440.408ZM557.932 426.334C556.276 426.334 554.948 427.956 554.948 429.939V435.562C554.948 437.545 556.293 439.166 557.932 439.166C559.588 439.166 560.916 437.545 560.916 435.562V429.939C560.916 427.956 559.588 426.334 557.932 426.334Z" fill="#EFF5F6"></path><path d="M560.534 427.516L554.672 437.992L555.756 438.599L561.618 428.123L560.534 427.516Z" fill="#EFF5F6"></path><path d="M472.713 343.272H471.075V326.49L468.591 328.836L467.453 327.646L471.333 323.989L472.713 324.576V343.272Z" fill="#EFF5F6"></path><path d="M475.766 342.444H468.022V344.082H475.766V342.444Z" fill="#EFF5F6"></path><path d="M518.349 343.272H516.711V326.49L514.21 328.836L513.089 327.646L516.952 323.989L518.349 324.576V343.272Z" fill="#EFF5F6"></path><path d="M521.402 342.444H513.658V344.082H521.402V342.444Z" fill="#EFF5F6"></path><path d="M536.079 343.272H534.441V326.49L531.957 328.836L530.819 327.646L534.7 323.989L536.079 324.576V343.272Z" fill="#EFF5F6"></path><path d="M539.132 342.444H531.388V344.082H539.132V342.444Z" fill="#EFF5F6"></path><path d="M553.81 343.272H552.171V326.49L549.688 328.836L548.567 327.646L552.43 323.989L553.81 324.576V343.272Z" fill="#EFF5F6"></path><path d="M556.863 342.444H549.119V344.082H556.863V342.444Z" fill="#EFF5F6"></path><path d="M493.462 374.593H491.823V357.811L489.322 360.174L488.201 358.967L492.082 355.31L493.462 355.914V374.593Z" fill="#EFF5F6"></path><path d="M496.514 373.782H488.77V375.42H496.514V373.782Z" fill="#EFF5F6"></path><path d="M472.678 379.163H471.506V367.159L469.729 368.832L468.919 367.987L471.695 365.365L472.678 365.797V379.163Z" fill="#EFF5F6"></path><path d="M474.869 378.577H469.333V379.75H474.869V378.577Z" fill="#EFF5F6"></path><defs><linearGradient id="paint0_linear" x1="417.666" y1="265.57" x2="191.079" y2="218.957" gradientUnits="userSpaceOnUse"><stop stop-color="#F29100"></stop><stop offset="1" stop-color="#FFDC30"></stop></linearGradient><linearGradient id="paint1_linear" x1="337.018" y1="262.173" x2="265.161" y2="151.361" gradientUnits="userSpaceOnUse"><stop stop-color="#C57900"></stop><stop offset="0.5435" stop-color="#FFDC30"></stop></linearGradient><linearGradient id="paint2_linear" x1="408.366" y1="272.521" x2="179.631" y2="225.467" gradientUnits="userSpaceOnUse"><stop offset="0.5172" stop-color="#F9E068"></stop><stop offset="1" stop-color="#F3BF35"></stop></linearGradient><linearGradient id="paint3_linear" x1="270.743" y1="253.605" x2="367.686" y2="256.069" gradientUnits="userSpaceOnUse"><stop offset="0.3442" stop-color="#C48224"></stop><stop offset="0.6617" stop-color="#F7B12C"></stop></linearGradient><linearGradient id="paint4_linear" x1="320.691" y1="252.513" x2="368.676" y2="220.916" gradientUnits="userSpaceOnUse"><stop offset="0.3442" stop-color="#C27623"></stop><stop offset="0.6617" stop-color="#F7B12C"></stop></linearGradient><linearGradient id="paint5_linear" x1="269.372" y1="255.978" x2="375.546" y2="259.081" gradientUnits="userSpaceOnUse"><stop offset="0.5172" stop-color="#F9E068"></stop><stop offset="1" stop-color="#F3BF35"></stop></linearGradient><linearGradient id="paint6_linear" x1="232.491" y1="221.664" x2="180.579" y2="32.2317" gradientUnits="userSpaceOnUse"><stop stop-color="#F29100"></stop><stop offset="1" stop-color="#FFDC30"></stop></linearGradient><linearGradient id="paint7_linear" x1="204.029" y1="159.315" x2="260.252" y2="62.2838" gradientUnits="userSpaceOnUse"><stop stop-color="#C57900"></stop><stop offset="0.5435" stop-color="#FFDC30"></stop></linearGradient><linearGradient id="paint8_linear" x1="223.65" y1="217.3" x2="171.247" y2="26.073" gradientUnits="userSpaceOnUse"><stop offset="0.5172" stop-color="#F9E068"></stop><stop offset="1" stop-color="#F3BF35"></stop></linearGradient><linearGradient id="paint9_linear" x1="185.01" y1="105.859" x2="220.448" y2="180.18" gradientUnits="userSpaceOnUse"><stop offset="0.3442" stop-color="#C48224"></stop><stop offset="0.6617" stop-color="#F7B12C"></stop></linearGradient><linearGradient id="paint10_linear" x1="205.057" y1="143.243" x2="247.436" y2="167.403" gradientUnits="userSpaceOnUse"><stop offset="0.3442" stop-color="#C27623"></stop><stop offset="0.6617" stop-color="#F7B12C"></stop></linearGradient><linearGradient id="paint11_linear" x1="182.687" y1="105.735" x2="221.194" y2="187.289" gradientUnits="userSpaceOnUse"><stop offset="0.5172" stop-color="#F9E068"></stop><stop offset="1" stop-color="#F3BF35"></stop></linearGradient><linearGradient id="paint12_linear" x1="242.294" y1="381.468" x2="79.5632" y2="217.05" gradientUnits="userSpaceOnUse"><stop stop-color="#F29100"></stop><stop offset="1" stop-color="#FFDC30"></stop></linearGradient><linearGradient id="paint13_linear" x1="177.058" y1="333.927" x2="178.694" y2="201.862" gradientUnits="userSpaceOnUse"><stop stop-color="#C57900"></stop><stop offset="0.5435" stop-color="#FFDC30"></stop></linearGradient><linearGradient id="paint14_linear" x1="230.699" y1="382.097" x2="66.4264" y2="216.122" gradientUnits="userSpaceOnUse"><stop offset="0.5172" stop-color="#F9E068"></stop><stop offset="1" stop-color="#F3BF35"></stop></linearGradient><linearGradient id="paint15_linear" x1="126.652" y1="290.053" x2="205.966" y2="345.852" gradientUnits="userSpaceOnUse"><stop offset="0.3442" stop-color="#C48224"></stop><stop offset="0.6617" stop-color="#F7B12C"></stop></linearGradient><linearGradient id="paint16_linear" x1="305.916" y1="393.467" x2="143.185" y2="229.049" gradientUnits="userSpaceOnUse"><stop stop-color="#F29100"></stop><stop offset="1" stop-color="#FFDC30"></stop></linearGradient><linearGradient id="paint17_linear" x1="240.681" y1="345.925" x2="242.316" y2="213.862" gradientUnits="userSpaceOnUse"><stop stop-color="#C57900"></stop><stop offset="0.5435" stop-color="#FFDC30"></stop></linearGradient><linearGradient id="paint18_linear" x1="294.322" y1="394.097" x2="130.049" y2="228.121" gradientUnits="userSpaceOnUse"><stop offset="0.5172" stop-color="#F9E068"></stop><stop offset="1" stop-color="#F3BF35"></stop></linearGradient><linearGradient id="paint19_linear" x1="190.275" y1="302.052" x2="269.588" y2="357.851" gradientUnits="userSpaceOnUse"><stop offset="0.3442" stop-color="#C48224"></stop><stop offset="0.6617" stop-color="#F7B12C"></stop></linearGradient><linearGradient id="paint20_linear" x1="232.449" y1="328.836" x2="289.901" y2="329.144" gradientUnits="userSpaceOnUse"><stop offset="0.3442" stop-color="#C27623"></stop><stop offset="0.6617" stop-color="#F7B12C"></stop></linearGradient><linearGradient id="paint21_linear" x1="187.818" y1="303.267" x2="274.46" y2="364.715" gradientUnits="userSpaceOnUse"><stop offset="0.5172" stop-color="#F9E068"></stop><stop offset="1" stop-color="#F3BF35"></stop></linearGradient></defs></svg>